<svg xmlns="http://www.w3.org/2000/svg" width="873" height="81">
    <defs>
        <style type="text/css">
            @namespace "http://www.w3.org/2000/svg";
            .line {fill: none; stroke: #636273;}
            .bold-line {stroke: #636273; shape-rendering: crispEdges; stroke-width: 2; }
            .thin-line {stroke: #636273; shape-rendering: crispEdges}
            .filled {fill: #636273; stroke: none;}
            text.terminal {font-family: -apple-system, BlinkMacSystemFont, "Segoe UI", Roboto,
            Ubuntu,
            Cantarell, Helvetica, sans-serif;
            font-size: 12px;
            fill: #ffffff;
            font-weight: bold;
            }
            text.nonterminal {font-family: -apple-system, BlinkMacSystemFont, "Segoe UI", Roboto,
            Ubuntu, Cantarell, Helvetica, sans-serif;
            font-size: 12px;
            fill: #e289a4;
            font-weight: normal;
            }
            text.regexp {font-family: -apple-system, BlinkMacSystemFont, "Segoe UI", Roboto, Ubuntu,
            Cantarell, Helvetica, sans-serif;
            font-size: 12px;
            fill: #00141F;
            font-weight: normal;
            }
            rect, circle, polygon {fill: none; stroke: none;}
            rect.terminal {fill: none; stroke: #be2f5b;}
            rect.nonterminal {fill: rgba(255,255,255,0.1); stroke: none;}
            rect.text {fill: none; stroke: none;}
            polygon.regexp {fill: #C7ECFF; stroke: #038cbc;}
</style>
    </defs>
        <polygon points="9 61 1 57 1 65"/>
        <polygon points="17 61 9 57 9 65"/>
        <rect x="31" y="47" width="62" height="32" rx="10"/>
        <rect x="29" y="45" width="62" height="32" class="terminal" rx="10"/>
        <text class="terminal" x="39" y="65">ALTER</text>
        <rect x="113" y="47" width="62" height="32" rx="10"/>
        <rect x="111" y="45" width="62" height="32" class="terminal" rx="10"/>
        <text class="terminal" x="121" y="65">TABLE</text><a xmlns:xlink="http://www.w3.org/1999/xlink" xlink:href="#tableName" xlink:title="tableName">
           <rect x="195" y="47" width="88" height="32"/>
           <rect x="193" y="45" width="88" height="32" class="nonterminal"/>
           <text class="nonterminal" x="203" y="65">tableName</text></a><rect x="303" y="47" width="66" height="32" rx="10"/>
        <rect x="301" y="45" width="66" height="32" class="terminal" rx="10"/>
        <text class="terminal" x="311" y="65">DEDUP</text>
        <rect x="389" y="47" width="72" height="32" rx="10"/>
        <rect x="387" y="45" width="72" height="32" class="terminal" rx="10"/>
        <text class="terminal" x="397" y="65">ENABLE</text>
        <rect x="481" y="47" width="74" height="32" rx="10"/>
        <rect x="479" y="45" width="74" height="32" class="terminal" rx="10"/>
        <text class="terminal" x="489" y="65">UPSERT</text>
        <rect x="575" y="47" width="54" height="32" rx="10"/>
        <rect x="573" y="45" width="54" height="32" class="terminal" rx="10"/>
        <text class="terminal" x="583" y="65">KEYS</text>
        <rect x="649" y="47" width="26" height="32" rx="10"/>
        <rect x="647" y="45" width="26" height="32" class="terminal" rx="10"/>
        <text class="terminal" x="657" y="65">(</text><a xmlns:xlink="http://www.w3.org/1999/xlink" xlink:href="#column" xlink:title="column">
           <rect x="715" y="47" width="64" height="32"/>
           <rect x="713" y="45" width="64" height="32" class="nonterminal"/>
           <text class="nonterminal" x="723" y="65">column</text></a><rect x="715" y="3" width="24" height="32" rx="10"/>
        <rect x="713" y="1" width="24" height="32" class="terminal" rx="10"/>
        <text class="terminal" x="723" y="21">,</text>
        <rect x="819" y="47" width="26" height="32" rx="10"/>
        <rect x="817" y="45" width="26" height="32" class="terminal" rx="10"/>
        <text class="terminal" x="827" y="65">)</text>
        <path class="line" d="m17 61 h2 m0 0 h10 m62 0 h10 m0 0 h10 m62 0 h10 m0 0 h10 m88 0 h10 m0 0 h10 m66 0 h10 m0 0 h10 m72 0 h10 m0 0 h10 m74 0 h10 m0 0 h10 m54 0 h10 m0 0 h10 m26 0 h10 m20 0 h10 m64 0 h10 m-104 0 l20 0 m-1 0 q-9 0 -9 -10 l0 -24 q0 -10 10 -10 m84 44 l20 0 m-20 0 q10 0 10 -10 l0 -24 q0 -10 -10 -10 m-84 0 h10 m24 0 h10 m0 0 h40 m20 44 h10 m26 0 h10 m3 0 h-3"/>
        <polygon points="863 61 871 57 871 65"/>
        <polygon points="863 61 855 57 855 65"/></svg>