<svg version="1.1" viewBox="0 0 143 23" xmlns="http://www.w3.org/2000/svg" xmlns:xlink="http://www.w3.org/1999/xlink"><defs><clipPath id="clipPath10551"><path d="M.016.066h26.34v22.92H.016z"/></clipPath><clipPath id="clipPath10562"><path d="M8 11h18.35v11.99H8z"/></clipPath><clipPath id="clipPath10573"><path d="M.016.066h18.98v22.92H.016z"/></clipPath><path id="reuse-0" d="M0 0h95v23H0z" fill-opacity=".6"/></defs><defs><linearGradient id="e" x1="323.8" x2="72.11" y1="283.3" y2="22.65" gradientTransform="scale(.08058 .08127)" gradientUnits="userSpaceOnUse"><stop stop-color="#892c6c" offset="0"/><stop stop-color="#d14671" offset="1"/></linearGradient><linearGradient id="f" x1="57.99" x2="318.7" y1="17.51" y2="279.5" gradientTransform="scale(.08058 .08127)" gradientUnits="userSpaceOnUse"><stop stop-color="#c34170" offset="0"/><stop stop-color="#8b2c6c" offset="1"/></linearGradient><linearGradient id="h" x1="312.2" x2="46.43" y1="276.9" y2="17.51" gradientTransform="scale(.08058 .08127)" gradientUnits="userSpaceOnUse"><stop stop-color="#882b6b" offset="0"/><stop stop-color="#cf4671" offset="1"/></linearGradient><linearGradient id="c" x1="34.71" x2="70.97" y1="192.4" y2="89.58" gradientTransform="scale(.08058 .08127)" gradientUnits="userSpaceOnUse"><stop stop-color="#fff" stop-opacity=".38" offset="0"/><stop stop-color="#fff" stop-opacity=".012" offset=".86"/><stop stop-color="#fff" stop-opacity="0" offset="1"/></linearGradient><clipPath id="b"><use xlink:href="#reuse-0"/></clipPath><filter id="a" x="0" y="0" width="1" height="1"><feColorMatrix in="SourceGraphic" values="0 0 0 0 1 0 0 0 0 1 0 0 0 0 1 0 0 0 1 0"/></filter><mask id="k"><g filter="url(#a)"><use fill-opacity=".6" xlink:href="#reuse-0"/></g></mask><g id="j" clip-path="url(#b)"><path d="M1.543 5.809c-2.793 8.02 5.551 11.37 5.551 11.37-.894-.66-2.012-2.207-2.348-3.312-.707-2.281-.484-4.082.672-6.07" fill="url(#c)"/></g></defs><path d="M104.5 5.326c-1.448 0-2.641.474-3.578 1.422-1.078 1.089-1.617 2.638-1.617 4.648 0 1.859.474 3.323 1.422 4.391.948 1.062 2.25 1.594 3.906 1.594 1.339 0 2.438-.393 3.297-1.18.854-.786 1.385-1.807 1.594-3.062h-2.383c-.161.594-.365 1.039-.61 1.336-.442.552-1.085.828-1.93.828-.822 0-1.502-.32-2.038-.96-.532-.647-.797-1.616-.797-2.907 0-1.292.252-2.289.757-2.992.506-.708 1.196-1.062 2.07-1.062.86 0 1.508.25 1.945.75.245.281.446.698.602 1.25h2.406c-.036-.719-.302-1.435-.797-2.148-.896-1.27-2.313-1.906-4.25-1.906zm6.727.219v11.52h2.227V5.545zm29.44.015v4.062a2.673 2.673 0 00-.977-.937 2.721 2.721 0 00-1.375-.344c-1.12 0-2.016.417-2.688 1.25-.666.833-1 1.977-1 3.43 0 1.26.339 2.294 1.016 3.102.683.802 1.521 1.203 2.516 1.203.605 0 1.11-.114 1.516-.344.407-.229.769-.596 1.086-1.102v1.18h2.164V5.56zm-21.21 2.711c-1.464 0-2.555.45-3.273 1.352-.719.901-1.078 1.966-1.078 3.195 0 1.25.36 2.32 1.078 3.211.719.886 1.81 1.328 3.273 1.328 1.464 0 2.555-.442 3.273-1.328.719-.89 1.078-1.96 1.078-3.21 0-1.23-.36-2.295-1.078-3.196-.719-.9-1.81-1.352-3.273-1.352zm5.883.274v5.133c0 .974.122 1.71.367 2.21.438.907 1.286 1.36 2.547 1.36.438 0 .818-.057 1.141-.172.328-.115.667-.328 1.016-.64.115-.1.214-.214.297-.344.083-.13.135-.209.156-.235v1.203h2.164V8.544h-2.258v4.633c0 .547-.073.987-.219 1.32-.28.615-.802.922-1.562.922-.593 0-.992-.216-1.195-.648-.114-.245-.171-.61-.171-1.094V8.544zm-5.891 1.609c.651 0 1.151.232 1.5.695.349.458.523 1.115.523 1.97 0 .853-.174 1.512-.523 1.976-.349.464-.849.695-1.5.695s-1.154-.231-1.508-.695c-.349-.463-.523-1.122-.523-1.977 0-.854.174-1.51.523-1.969.354-.463.857-.695 1.508-.695zm19.37.133c.427 0 .802.135 1.125.406.526.448.79 1.193.79 2.234 0 .745-.165 1.352-.493 1.82-.328.469-.807.703-1.438.703-.63 0-1.1-.237-1.406-.711-.313-.469-.469-1.096-.469-1.883 0-.73.151-1.339.453-1.828.308-.495.787-.742 1.438-.742z" fill="#d14671"/><path d="M79.29 17.14c3.594 0 5.723-2.25 5.723-5.988 0-3.723-2.129-5.965-5.641-5.965h-4.074v11.95zm-1.859-1.871V7.062h1.82c2.395 0 3.641 1.355 3.641 4.09 0 2.75-1.246 4.117-3.703 4.117zm8.777 1.871h4.77c2.699 0 4.023-1.395 4.023-3.254 0-1.809-1.266-2.871-2.52-2.938v-.117c1.148-.274 2.059-1.09 2.059-2.543 0-1.781-1.266-3.102-3.82-3.102h-4.512zm2.133-1.809v-3.5h2.355c1.316 0 2.133.816 2.133 1.883 0 .953-.644 1.617-2.191 1.617zm0-5.059V6.975h2.16c1.254 0 1.906.668 1.906 1.594 0 1.047-.844 1.703-1.953 1.703zm-47.72.906c0-3.785-2.277-6.016-5.305-6.016-3.031 0-5.305 2.23-5.305 6.016 0 3.777 2.273 6.012 5.305 6.012.734 0 1.422-.133 2.047-.383l.953 1.227h2.027l-1.602-2.078c1.16-1.03 1.88-2.66 1.88-4.777zm-6.016 1.918l1.562 2.082a3.2 3.2 0 01-.852.11c-1.879 0-3.203-1.45-3.203-4.11 0-2.663 1.324-4.112 3.203-4.112 1.883 0 3.203 1.449 3.203 4.113 0 1.438-.386 2.52-1.039 3.21l-.98-1.292zm12.75.086c0 1.336-.941 2-1.844 2-.98 0-1.633-.703-1.633-1.82v-5.27h-2.039v5.59c0 2.11 1.164 3.367 2.867 3.367 1.297 0 2.227-.754 2.621-1.738h.09v1.738h1.977V8.092h-2.04zm7.449 4.02c2.02 0 3.406-1 3.766-2.527l-1.906-.219c-.273.746-.953 1.133-1.832 1.133-1.316 0-2.191-.879-2.207-2.383h6.031v-.632c0-3.082-1.828-4.438-3.957-4.438-2.48 0-4.098 1.848-4.098 4.555 0 2.758 1.594 4.512 4.203 4.512zm-2.176-5.39c.063-1.122.879-2.063 2.098-2.063 1.172 0 1.961.867 1.973 2.062zm14.32-1.243c-.281-1.484-1.453-2.434-3.48-2.434-2.086 0-3.508 1.04-3.5 2.664-.008 1.281.77 2.125 2.434 2.477l1.477.313c.797.175 1.168.504 1.168 1 0 .601-.644 1.05-1.613 1.05-.934 0-1.543-.41-1.719-1.198l-1.988.195c.254 1.609 1.59 2.566 3.715 2.566 2.164 0 3.691-1.137 3.695-2.801-.004-1.254-.8-2.02-2.434-2.38l-1.477-.32c-.879-.199-1.23-.507-1.223-1.015-.008-.594.64-1.008 1.492-1.008.941 0 1.438.52 1.594 1.098zm6.215-2.32h-1.711V6.147h-2.039V8.25h-1.227v1.602h1.227v4.883c-.012 1.652 1.172 2.461 2.707 2.418.578-.02.98-.133 1.199-.207l-.344-1.617a2.604 2.604 0 01-.597.078c-.512 0-.926-.18-.926-1.016v-4.54h1.71z"/><path d="M4.336 11.51c0-3.973 3.242-7.172 7.266-7.172 1.453 0 2.793.402 3.91 1.141l3.129-3.055A11.63 11.63 0 0011.602.069C5.196.069.012 5.182.012 11.509c0 6.332 5.18 11.45 11.59 11.45v-4.27c-4.023 0-7.266-3.199-7.266-7.176z" clip-path="url(#clipPath10573)" fill="url(#e)"/><path d="M18.86 11.51h4.32c0-3.016-1.191-5.773-3.129-7.836l-3.055 3.02a7.193 7.193 0 011.863 4.816z" fill="url(#f)"/><path d="M15.14 11.88H8.769l11.25 11.11 6.332-.035z" clip-path="url(#clipPath10562)" fill="url(#h)"/><use clip-path="url(#clipPath10551)" mask="url(#k)" xlink:href="#j"/></svg>